<?xml version="1.0" standalone="no"?>
<!DOCTYPE svg PUBLIC "-//W3C//DTD SVG 20010904//EN"
 "http://www.w3.org/TR/2001/REC-SVG-20010904/DTD/svg10.dtd">
<svg version="1.0" xmlns="http://www.w3.org/2000/svg"
 width="700.000000pt" height="700.000000pt" viewBox="0 0 700.000000 700.000000"
 preserveAspectRatio="xMidYMid meet">
<metadata>
Created by potrace 1.11, written by Peter Selinger 2001-2013
</metadata>
<g transform="translate(0.000000,700.000000) scale(0.100000,-0.100000)"
fill="#000000" stroke="none">
<path d="M3305 6208 l1 -693 189 -2 c154 -1 191 1 195 12 3 8 5 319 4 692 l0
678 -195 3 -194 2 0 -692z"/>
<path d="M1501 5504 l-114 -114 404 -405 c222 -222 408 -405 413 -405 5 0 58
50 119 111 l111 110 -410 409 -409 409 -114 -115z"/>
<path d="M4975 5210 l-409 -409 110 -110 c60 -61 113 -111 118 -111 5 0 191
182 414 405 l405 405 -114 115 -115 114 -409 -409z"/>
<path d="M3359 4925 c-2 -1 -26 -6 -54 -9 -84 -11 -108 -16 -165 -32 -30 -9
-62 -17 -70 -19 -113 -24 -388 -177 -492 -273 -22 -20 -46 -41 -54 -45 -28
-16 -166 -182 -221 -266 -104 -157 -178 -344 -215 -541 -16 -87 -18 -364 -2
-450 39 -222 92 -368 195 -537 135 -221 343 -413 570 -529 60 -30 213 -90 250
-98 13 -3 52 -12 86 -20 99 -25 130 -28 293 -31 119 -2 178 2 255 16 153 29
154 29 229 56 321 114 583 325 756 608 54 89 132 258 145 315 2 8 13 51 24 95
29 117 32 144 36 315 6 264 -52 497 -176 716 -214 376 -571 632 -988 711 -74
13 -392 28 -402 18z"/>
<path d="M108 3693 c-2 -5 -3 -91 -3 -193 l1 -185 694 0 694 0 0 193 1 192
-692 0 c-380 0 -693 -3 -695 -7z"/>
<path d="M5508 3683 c-3 -15 -2 -342 1 -365 1 -8 1365 -8 1377 1 5 3 9 90 9
194 l0 187 -691 0 c-651 0 -692 -1 -696 -17z"/>
<path d="M1797 2032 l-408 -408 94 -95 c51 -52 103 -103 115 -113 l22 -19 407
407 407 407 -115 114 -114 115 -408 -408z"/>
<path d="M4680 2325 l-114 -114 404 -405 c223 -223 408 -406 412 -406 6 0 189
179 215 211 10 13 -55 82 -395 422 l-407 407 -115 -115z"/>
<path d="M3306 818 c1 -376 2 -688 3 -695 1 -8 52 -11 179 -11 97 -1 184 1
192 4 13 3 15 88 14 691 l0 688 -195 3 -194 2 1 -682z"/>
</g>
</svg>
